solid OpenSCAD_Model
  facet normal 1 0 0
    outer loop
      vertex 8 4.5 0
      vertex 8 12.5 0
      vertex 8 12.5 30
    endloop
  endfacet
  facet normal 1 0 0
    outer loop
      vertex 8 4.5 30
      vertex 8 4.5 0
      vertex 8 12.5 30
    endloop
  endfacet
  facet normal 0 -1 0
    outer loop
      vertex 8 12.5 0
      vertex 14 12.5 0
      vertex 14 12.5 30
    endloop
  endfacet
  facet normal 0 -1 0
    outer loop
      vertex 8 12.5 30
      vertex 8 12.5 0
      vertex 14 12.5 30
    endloop
  endfacet
  facet normal 0 0 -1
    outer loop
      vertex 0 14.6 0
      vertex 1 15.6 0
      vertex 0 1 0
    endloop
  endfacet
  facet normal 0 0 -1
    outer loop
      vertex 14 12.5 0
      vertex 1 15.6 0
      vertex 21 15.6 0
    endloop
  endfacet
  facet normal 0 0 -1
    outer loop
      vertex 19 12.05 0
      vertex 22 14.6 0
      vertex 22 13 0
    endloop
  endfacet
  facet normal 0 0 -1
    outer loop
      vertex 14 12.5 0
      vertex 22 14.6 0
      vertex 19 12.05 0
    endloop
  endfacet
  facet normal 0 0 -1
    outer loop
      vertex 14 12.5 0
      vertex 21 15.6 0
      vertex 22 14.6 0
    endloop
  endfacet
  facet normal 0 0 -1
    outer loop
      vertex 8 12.5 0
      vertex 1 15.6 0
      vertex 14 12.5 0
    endloop
  endfacet
  facet normal 0 0 -1
    outer loop
      vertex 8 4.5 0
      vertex 0 1 0
      vertex 8 12.5 0
    endloop
  endfacet
  facet normal 0 0 -1
    outer loop
      vertex 0 1 0
      vertex 1 15.6 0
      vertex 8 12.5 0
    endloop
  endfacet
  facet normal 0 0 -1
    outer loop
      vertex 0 1 0
      vertex 8 4.5 0
      vertex 14 4.5 0
    endloop
  endfacet
  facet normal 0 0 -1
    outer loop
      vertex 14 4.5 0
      vertex 19 4.95 0
      vertex 0 1 0
    endloop
  endfacet
  facet normal 0 0 -1
    outer loop
      vertex 0 1 0
      vertex 19 4.95 0
      vertex 21 5 0
    endloop
  endfacet
  facet normal 0 0 -1
    outer loop
      vertex 0 1 0
      vertex 21 5 0
      vertex 22 4 0
    endloop
  endfacet
  facet normal 0 0 -1
    outer loop
      vertex 0 1 0
      vertex 22 4 0
      vertex 22 1 0
    endloop
  endfacet
  facet normal 0 0 -1
    outer loop
      vertex 0 1 0
      vertex 22 1 0
      vertex 21 0 0
    endloop
  endfacet
  facet normal 0 0 -1
    outer loop
      vertex 0 1 0
      vertex 21 0 0
      vertex 1 0 0
    endloop
  endfacet
  facet normal 0 0 -1
    outer loop
      vertex 19 12.05 0
      vertex 22 13 0
      vertex 21 12 0
    endloop
  endfacet
  facet normal 0 1 0
    outer loop
      vertex 8 4.5 30
      vertex 14 4.5 30
      vertex 8 4.5 0
    endloop
  endfacet
  facet normal 0 1 0
    outer loop
      vertex 8 4.5 0
      vertex 14 4.5 30
      vertex 14 4.5 0
    endloop
  endfacet
  facet normal 0 0 1
    outer loop
      vertex 0 1 30
      vertex 1 0 30
      vertex 21 0 30
    endloop
  endfacet
  facet normal 0 0 1
    outer loop
      vertex 22 4 30
      vertex 0 1 30
      vertex 22 1 30
    endloop
  endfacet
  facet normal 0 0 1
    outer loop
      vertex 22 1 30
      vertex 0 1 30
      vertex 21 0 30
    endloop
  endfacet
  facet normal 0 0 1
    outer loop
      vertex 21 5 30
      vertex 0 1 30
      vertex 22 4 30
    endloop
  endfacet
  facet normal 0 0 1
    outer loop
      vertex 19 4.95 30
      vertex 0 1 30
      vertex 21 5 30
    endloop
  endfacet
  facet normal 0 0 1
    outer loop
      vertex 14 4.5 30
      vertex 0 1 30
      vertex 19 4.95 30
    endloop
  endfacet
  facet normal 0 0 1
    outer loop
      vertex 8 4.5 30
      vertex 0 1 30
      vertex 14 4.5 30
    endloop
  endfacet
  facet normal 0 0 1
    outer loop
      vertex 8 12.5 30
      vertex 0 1 30
      vertex 8 4.5 30
    endloop
  endfacet
  facet normal 0 0 1
    outer loop
      vertex 1 15.6 30
      vertex 0 1 30
      vertex 8 12.5 30
    endloop
  endfacet
  facet normal 0 0 1
    outer loop
      vertex 22 13 30
      vertex 8 12.5 30
      vertex 14 12.5 30
    endloop
  endfacet
  facet normal 0 0 1
    outer loop
      vertex 21 12 30
      vertex 14 12.5 30
      vertex 19 12.05 30
    endloop
  endfacet
  facet normal 0 0 1
    outer loop
      vertex 22 13 30
      vertex 14 12.5 30
      vertex 21 12 30
    endloop
  endfacet
  facet normal 0 0 1
    outer loop
      vertex 22 14.6 30
      vertex 8 12.5 30
      vertex 22 13 30
    endloop
  endfacet
  facet normal 0 0 1
    outer loop
      vertex 21 15.6 30
      vertex 8 12.5 30
      vertex 22 14.6 30
    endloop
  endfacet
  facet normal 0 0 1
    outer loop
      vertex 1 15.6 30
      vertex 8 12.5 30
      vertex 21 15.6 30
    endloop
  endfacet
  facet normal 0 0 1
    outer loop
      vertex 0 14.6 30
      vertex 0 1 30
      vertex 1 15.6 30
    endloop
  endfacet
  facet normal -0.0896377 -0.995974 0
    outer loop
      vertex 14 12.5 0
      vertex 19 12.05 0
      vertex 19 12.05 30
    endloop
  endfacet
  facet normal -0.0896377 -0.995974 0
    outer loop
      vertex 14 12.5 30
      vertex 14 12.5 0
      vertex 19 12.05 30
    endloop
  endfacet
  facet normal -0.707107 -0.707107 0
    outer loop
      vertex 0 1 0
      vertex 1 0 0
      vertex 1 0 30
    endloop
  endfacet
  facet normal -0.707107 -0.707107 0
    outer loop
      vertex 0 1 30
      vertex 0 1 0
      vertex 1 0 30
    endloop
  endfacet
  facet normal -1 0 0
    outer loop
      vertex 0 1 30
      vertex 0 14.6 30
      vertex 0 1 0
    endloop
  endfacet
  facet normal -1 0 0
    outer loop
      vertex 0 1 0
      vertex 0 14.6 30
      vertex 0 14.6 0
    endloop
  endfacet
  facet normal 0 -1 0
    outer loop
      vertex 1 0 0
      vertex 21 0 0
      vertex 21 0 30
    endloop
  endfacet
  facet normal 0 -1 0
    outer loop
      vertex 1 0 30
      vertex 1 0 0
      vertex 21 0 30
    endloop
  endfacet
  facet normal 0.707107 -0.707107 0
    outer loop
      vertex 21 0 0
      vertex 22 1 0
      vertex 22 1 30
    endloop
  endfacet
  facet normal 0.707107 -0.707107 0
    outer loop
      vertex 21 0 30
      vertex 21 0 0
      vertex 22 1 30
    endloop
  endfacet
  facet normal 1 0 0
    outer loop
      vertex 22 1 0
      vertex 22 4 0
      vertex 22 4 30
    endloop
  endfacet
  facet normal 1 0 0
    outer loop
      vertex 22 1 30
      vertex 22 1 0
      vertex 22 4 30
    endloop
  endfacet
  facet normal 0.707107 0.707107 0
    outer loop
      vertex 21 5 30
      vertex 22 4 30
      vertex 21 5 0
    endloop
  endfacet
  facet normal 0.707107 0.707107 0
    outer loop
      vertex 21 5 0
      vertex 22 4 30
      vertex 22 4 0
    endloop
  endfacet
  facet normal -0.0249922 0.999688 0
    outer loop
      vertex 19 4.95 30
      vertex 21 5 30
      vertex 19 4.95 0
    endloop
  endfacet
  facet normal -0.0249922 0.999688 0
    outer loop
      vertex 19 4.95 0
      vertex 21 5 30
      vertex 21 5 0
    endloop
  endfacet
  facet normal -0.0896377 0.995974 0
    outer loop
      vertex 14 4.5 30
      vertex 19 4.95 30
      vertex 14 4.5 0
    endloop
  endfacet
  facet normal -0.0896377 0.995974 0
    outer loop
      vertex 14 4.5 0
      vertex 19 4.95 30
      vertex 19 4.95 0
    endloop
  endfacet
  facet normal -0.0249922 -0.999688 0
    outer loop
      vertex 19 12.05 0
      vertex 21 12 0
      vertex 21 12 30
    endloop
  endfacet
  facet normal -0.0249922 -0.999688 0
    outer loop
      vertex 19 12.05 30
      vertex 19 12.05 0
      vertex 21 12 30
    endloop
  endfacet
  facet normal 0.707107 -0.707107 0
    outer loop
      vertex 21 12 0
      vertex 22 13 0
      vertex 22 13 30
    endloop
  endfacet
  facet normal 0.707107 -0.707107 0
    outer loop
      vertex 21 12 30
      vertex 21 12 0
      vertex 22 13 30
    endloop
  endfacet
  facet normal 1 0 0
    outer loop
      vertex 22 13 0
      vertex 22 14.6 0
      vertex 22 14.6 30
    endloop
  endfacet
  facet normal 1 0 0
    outer loop
      vertex 22 13 30
      vertex 22 13 0
      vertex 22 14.6 30
    endloop
  endfacet
  facet normal 0.707107 0.707107 0
    outer loop
      vertex 21 15.6 30
      vertex 22 14.6 30
      vertex 21 15.6 0
    endloop
  endfacet
  facet normal 0.707107 0.707107 0
    outer loop
      vertex 21 15.6 0
      vertex 22 14.6 30
      vertex 22 14.6 0
    endloop
  endfacet
  facet normal 0 1 0
    outer loop
      vertex 1 15.6 30
      vertex 21 15.6 30
      vertex 1 15.6 0
    endloop
  endfacet
  facet normal 0 1 0
    outer loop
      vertex 1 15.6 0
      vertex 21 15.6 30
      vertex 21 15.6 0
    endloop
  endfacet
  facet normal -0.707107 0.707107 0
    outer loop
      vertex 0 14.6 30
      vertex 1 15.6 30
      vertex 0 14.6 0
    endloop
  endfacet
  facet normal -0.707107 0.707107 0
    outer loop
      vertex 0 14.6 0
      vertex 1 15.6 30
      vertex 1 15.6 0
    endloop
  endfacet
endsolid OpenSCAD_Model
