solid OpenSCAD_Model
  facet normal -1 0 0
    outer loop
      vertex -21.15 -34.65 -10
      vertex -21.15 -34.65 10
      vertex -21.15 34.65 -10
    endloop
  endfacet
  facet normal -1 0 0
    outer loop
      vertex -21.15 34.65 -10
      vertex -21.15 -34.65 10
      vertex -21.15 34.65 10
    endloop
  endfacet
  facet normal 0 -1 0
    outer loop
      vertex -21.15 -34.65 10
      vertex -21.15 -34.65 -10
      vertex 21.15 -34.65 -10
    endloop
  endfacet
  facet normal 0 -1 0
    outer loop
      vertex 21.15 -34.65 10
      vertex -21.15 -34.65 10
      vertex 21.15 -34.65 -10
    endloop
  endfacet
  facet normal 0 0 -1
    outer loop
      vertex 19.15 32.65 -10
      vertex 21.15 -7.85 -10
      vertex 21.15 -14.05 -10
    endloop
  endfacet
  facet normal 0 0 -1
    outer loop
      vertex 19.15 32.65 -10
      vertex -21.15 34.65 -10
      vertex 21.15 34.65 -10
    endloop
  endfacet
  facet normal 0 0 -1
    outer loop
      vertex 19.15 32.65 -10
      vertex 21.15 -14.05 -10
      vertex 21.15 -18.05 -10
    endloop
  endfacet
  facet normal 0 0 -1
    outer loop
      vertex 22.425 7.85 -10
      vertex 21.15 -7.85 -10
      vertex 21.15 7.85 -10
    endloop
  endfacet
  facet normal 0 0 -1
    outer loop
      vertex 21.15 14.05 -10
      vertex 21.15 18.05 -10
      vertex 23.15 16.05 -10
    endloop
  endfacet
  facet normal 0 0 -1
    outer loop
      vertex 23.15 -16.05 -10
      vertex 41.05 -11.55 -10
      vertex 41.05 -12.775 -10
    endloop
  endfacet
  facet normal 0 0 -1
    outer loop
      vertex 23.15 16.05 -10
      vertex 49.25 16.05 -10
      vertex 43.05 14.05 -10
    endloop
  endfacet
  facet normal 0 0 -1
    outer loop
      vertex 23.15 -16.05 -10
      vertex 41.05 -12.775 -10
      vertex 43.05 -12.775 -10
    endloop
  endfacet
  facet normal 0 0 -1
    outer loop
      vertex 41.05 12.775 -10
      vertex 43.05 14.05 -10
      vertex 43.05 12.775 -10
    endloop
  endfacet
  facet normal 0 0 -1
    outer loop
      vertex 23.15 -16.05 -10
      vertex 43.05 -12.775 -10
      vertex 43.05 -14.05 -10
    endloop
  endfacet
  facet normal 0 0 -1
    outer loop
      vertex 23.15 16.05 -10
      vertex 43.05 14.05 -10
      vertex 41.05 12.775 -10
    endloop
  endfacet
  facet normal 0 0 -1
    outer loop
      vertex 23.65 5.85 -10
      vertex 22.425 -5.85 -10
      vertex 22.425 5.85 -10
    endloop
  endfacet
  facet normal 0 0 -1
    outer loop
      vertex 29.35 11.55 -10
      vertex 41.05 12.775 -10
      vertex 41.05 11.55 -10
    endloop
  endfacet
  facet normal 0 0 -1
    outer loop
      vertex 29.35 12.775 -10
      vertex 41.05 12.775 -10
      vertex 29.35 11.55 -10
    endloop
  endfacet
  facet normal 0 0 -1
    outer loop
      vertex 27.35 14.05 -10
      vertex 41.05 12.775 -10
      vertex 29.35 12.775 -10
    endloop
  endfacet
  facet normal 0 0 -1
    outer loop
      vertex 27.35 14.05 -10
      vertex 29.35 12.775 -10
      vertex 27.35 12.775 -10
    endloop
  endfacet
  facet normal 0 0 -1
    outer loop
      vertex 23.15 16.05 -10
      vertex 41.05 12.775 -10
      vertex 27.35 14.05 -10
    endloop
  endfacet
  facet normal 0 0 -1
    outer loop
      vertex 21.15 14.05 -10
      vertex 23.15 16.05 -10
      vertex 27.35 14.05 -10
    endloop
  endfacet
  facet normal 0 0 -1
    outer loop
      vertex 23.15 -16.05 -10
      vertex 43.05 -14.05 -10
      vertex 49.25 -14.05 -10
    endloop
  endfacet
  facet normal 0 0 -1
    outer loop
      vertex -19.15 32.65 -10
      vertex -21.15 34.65 -10
      vertex 19.15 32.65 -10
    endloop
  endfacet
  facet normal 0 0 -1
    outer loop
      vertex 23.65 -2.25 -10
      vertex 25.15 2.25 -10
      vertex 25.15 -2.25 -10
    endloop
  endfacet
  facet normal 0 0 -1
    outer loop
      vertex 21.15 -7.85 -10
      vertex 22.425 5.85 -10
      vertex 22.425 -5.85 -10
    endloop
  endfacet
  facet normal 0 0 -1
    outer loop
      vertex 21.15 -7.85 -10
      vertex 22.425 -5.85 -10
      vertex 22.425 -7.85 -10
    endloop
  endfacet
  facet normal 0 0 -1
    outer loop
      vertex 22.425 -5.85 -10
      vertex 23.65 -2.25 -10
      vertex 23.65 -5.85 -10
    endloop
  endfacet
  facet normal 0 0 -1
    outer loop
      vertex 23.65 2.25 -10
      vertex 25.15 2.25 -10
      vertex 23.65 -2.25 -10
    endloop
  endfacet
  facet normal 0 0 -1
    outer loop
      vertex 22.425 -5.85 -10
      vertex 23.65 5.85 -10
      vertex 23.65 2.25 -10
    endloop
  endfacet
  facet normal 0 0 -1
    outer loop
      vertex 21.15 -7.85 -10
      vertex 22.425 7.85 -10
      vertex 22.425 5.85 -10
    endloop
  endfacet
  facet normal 0 0 -1
    outer loop
      vertex 19.15 32.65 -10
      vertex 21.15 -34.65 -10
      vertex 19.15 -32.65 -10
    endloop
  endfacet
  facet normal 0 0 -1
    outer loop
      vertex 27.35 -14.05 -10
      vertex 23.15 -16.05 -10
      vertex 21.15 -14.05 -10
    endloop
  endfacet
  facet normal 0 0 -1
    outer loop
      vertex 29.35 -12.775 -10
      vertex 27.35 -14.05 -10
      vertex 27.35 -12.775 -10
    endloop
  endfacet
  facet normal 0 0 -1
    outer loop
      vertex 19.15 32.65 -10
      vertex 21.15 14.05 -10
      vertex 21.15 7.85 -10
    endloop
  endfacet
  facet normal 0 0 -1
    outer loop
      vertex 27.35 -14.05 -10
      vertex 29.35 -12.775 -10
      vertex 41.05 -11.55 -10
    endloop
  endfacet
  facet normal 0 0 -1
    outer loop
      vertex 22.425 -5.85 -10
      vertex 23.65 2.25 -10
      vertex 23.65 -2.25 -10
    endloop
  endfacet
  facet normal 0 0 -1
    outer loop
      vertex 23.15 -16.05 -10
      vertex 49.25 -14.05 -10
      vertex 49.25 -16.05 -10
    endloop
  endfacet
  facet normal 0 0 -1
    outer loop
      vertex 19.15 32.65 -10
      vertex 21.15 18.05 -10
      vertex 21.15 14.05 -10
    endloop
  endfacet
  facet normal 0 0 -1
    outer loop
      vertex 21.15 -18.05 -10
      vertex 21.15 -14.05 -10
      vertex 23.15 -16.05 -10
    endloop
  endfacet
  facet normal 0 0 -1
    outer loop
      vertex 19.15 32.65 -10
      vertex 21.15 -18.05 -10
      vertex 21.15 -34.65 -10
    endloop
  endfacet
  facet normal 0 0 -1
    outer loop
      vertex -19.15 -32.65 -10
      vertex -21.15 34.65 -10
      vertex -19.15 32.65 -10
    endloop
  endfacet
  facet normal 0 0 -1
    outer loop
      vertex -21.15 -34.65 -10
      vertex -21.15 34.65 -10
      vertex -19.15 -32.65 -10
    endloop
  endfacet
  facet normal 0 0 -1
    outer loop
      vertex -21.15 -34.65 -10
      vertex -19.15 -32.65 -10
      vertex 21.15 -34.65 -10
    endloop
  endfacet
  facet normal 0 0 -1
    outer loop
      vertex 19.15 32.65 -10
      vertex 21.15 7.85 -10
      vertex 21.15 -7.85 -10
    endloop
  endfacet
  facet normal 0 0 -1
    outer loop
      vertex -19.15 -32.65 -10
      vertex 19.15 -32.65 -10
      vertex 21.15 -34.65 -10
    endloop
  endfacet
  facet normal 0 0 -1
    outer loop
      vertex 21.15 18.05 -10
      vertex 19.15 32.65 -10
      vertex 21.15 34.65 -10
    endloop
  endfacet
  facet normal 0 0 -1
    outer loop
      vertex 43.05 14.05 -10
      vertex 49.25 16.05 -10
      vertex 49.25 14.05 -10
    endloop
  endfacet
  facet normal 0 0 -1
    outer loop
      vertex 23.15 -16.05 -10
      vertex 27.35 -14.05 -10
      vertex 41.05 -11.55 -10
    endloop
  endfacet
  facet normal 0 0 -1
    outer loop
      vertex 41.05 -11.55 -10
      vertex 29.35 -12.775 -10
      vertex 29.35 -11.55 -10
    endloop
  endfacet
  facet normal 0 1 0
    outer loop
      vertex -21.15 34.65 -10
      vertex -21.15 34.65 10
      vertex 21.15 34.65 -10
    endloop
  endfacet
  facet normal 0 1 0
    outer loop
      vertex 21.15 34.65 -10
      vertex -21.15 34.65 10
      vertex 21.15 34.65 10
    endloop
  endfacet
  facet normal 0 0 1
    outer loop
      vertex -19.15 -32.65 10
      vertex -21.15 -34.65 10
      vertex 21.15 -34.65 10
    endloop
  endfacet
  facet normal 0 0 1
    outer loop
      vertex 19.15 32.65 10
      vertex 21.15 7.85 10
      vertex 21.15 14.05 10
    endloop
  endfacet
  facet normal 0 0 1
    outer loop
      vertex 19.15 32.65 10
      vertex 21.15 14.05 10
      vertex 21.15 18.05 10
    endloop
  endfacet
  facet normal 0 0 1
    outer loop
      vertex 19.15 32.65 10
      vertex 21.15 -34.65 10
      vertex 21.15 -18.05 10
    endloop
  endfacet
  facet normal 0 0 1
    outer loop
      vertex 49.25 -16.05 10
      vertex 43.05 -14.05 10
      vertex 23.15 -16.05 10
    endloop
  endfacet
  facet normal 0 0 1
    outer loop
      vertex 41.05 12.775 10
      vertex 23.15 16.05 10
      vertex 41.05 11.55 10
    endloop
  endfacet
  facet normal 0 0 1
    outer loop
      vertex 43.05 -14.05 10
      vertex 41.05 -12.775 10
      vertex 23.15 -16.05 10
    endloop
  endfacet
  facet normal 0 0 1
    outer loop
      vertex 23.65 2.25 10
      vertex 23.65 5.85 10
      vertex 22.425 5.85 10
    endloop
  endfacet
  facet normal 0 0 1
    outer loop
      vertex 19.15 32.65 10
      vertex 19.15 -32.65 10
      vertex 21.15 -34.65 10
    endloop
  endfacet
  facet normal 0 0 1
    outer loop
      vertex 27.35 -12.775 10
      vertex 27.35 -14.05 10
      vertex 29.35 -12.775 10
    endloop
  endfacet
  facet normal 0 0 1
    outer loop
      vertex 41.05 -12.775 10
      vertex 29.35 -11.55 10
      vertex 29.35 -12.775 10
    endloop
  endfacet
  facet normal 0 0 1
    outer loop
      vertex 25.15 -2.25 10
      vertex 25.15 2.25 10
      vertex 23.65 2.25 10
    endloop
  endfacet
  facet normal 0 0 1
    outer loop
      vertex 41.05 -12.775 10
      vertex 27.35 -14.05 10
      vertex 23.15 -16.05 10
    endloop
  endfacet
  facet normal 0 0 1
    outer loop
      vertex 41.05 -12.775 10
      vertex 29.35 -12.775 10
      vertex 27.35 -14.05 10
    endloop
  endfacet
  facet normal 0 0 1
    outer loop
      vertex 23.15 -16.05 10
      vertex 21.15 -14.05 10
      vertex 21.15 -18.05 10
    endloop
  endfacet
  facet normal 0 0 1
    outer loop
      vertex 21.15 18.05 10
      vertex 21.15 14.05 10
      vertex 23.15 16.05 10
    endloop
  endfacet
  facet normal 0 0 1
    outer loop
      vertex 23.15 16.05 10
      vertex 21.15 14.05 10
      vertex 27.35 14.05 10
    endloop
  endfacet
  facet normal 0 0 1
    outer loop
      vertex 27.35 -14.05 10
      vertex 21.15 -14.05 10
      vertex 23.15 -16.05 10
    endloop
  endfacet
  facet normal 0 0 1
    outer loop
      vertex 41.05 -11.55 10
      vertex 29.35 -11.55 10
      vertex 41.05 -12.775 10
    endloop
  endfacet
  facet normal 0 0 1
    outer loop
      vertex 22.425 5.85 10
      vertex 22.425 7.85 10
      vertex 21.15 7.85 10
    endloop
  endfacet
  facet normal 0 0 1
    outer loop
      vertex 43.05 -12.775 10
      vertex 41.05 -12.775 10
      vertex 43.05 -14.05 10
    endloop
  endfacet
  facet normal 0 0 1
    outer loop
      vertex 19.15 32.65 10
      vertex 21.15 -18.05 10
      vertex 21.15 -14.05 10
    endloop
  endfacet
  facet normal 0 0 1
    outer loop
      vertex 19.15 32.65 10
      vertex 21.15 -14.05 10
      vertex 21.15 -7.85 10
    endloop
  endfacet
  facet normal 0 0 1
    outer loop
      vertex 27.35 12.775 10
      vertex 29.35 12.775 10
      vertex 27.35 14.05 10
    endloop
  endfacet
  facet normal 0 0 1
    outer loop
      vertex 29.35 11.55 10
      vertex 41.05 11.55 10
      vertex 29.35 12.775 10
    endloop
  endfacet
  facet normal 0 0 1
    outer loop
      vertex 19.15 32.65 10
      vertex 21.15 -7.85 10
      vertex 21.15 7.85 10
    endloop
  endfacet
  facet normal 0 0 1
    outer loop
      vertex 49.25 16.05 10
      vertex 43.05 14.05 10
      vertex 49.25 14.05 10
    endloop
  endfacet
  facet normal 0 0 1
    outer loop
      vertex 41.05 11.55 10
      vertex 27.35 14.05 10
      vertex 29.35 12.775 10
    endloop
  endfacet
  facet normal 0 0 1
    outer loop
      vertex 21.15 18.05 10
      vertex 21.15 34.65 10
      vertex 19.15 32.65 10
    endloop
  endfacet
  facet normal 0 0 1
    outer loop
      vertex -19.15 -32.65 10
      vertex -19.15 32.65 10
      vertex -21.15 34.65 10
    endloop
  endfacet
  facet normal 0 0 1
    outer loop
      vertex 41.05 11.55 10
      vertex 23.15 16.05 10
      vertex 27.35 14.05 10
    endloop
  endfacet
  facet normal 0 0 1
    outer loop
      vertex 21.15 7.85 10
      vertex 21.15 -7.85 10
      vertex 22.425 -7.85 10
    endloop
  endfacet
  facet normal 0 0 1
    outer loop
      vertex 19.15 -32.65 10
      vertex -19.15 -32.65 10
      vertex 21.15 -34.65 10
    endloop
  endfacet
  facet normal 0 0 1
    outer loop
      vertex -21.15 34.65 10
      vertex -21.15 -34.65 10
      vertex -19.15 -32.65 10
    endloop
  endfacet
  facet normal 0 0 1
    outer loop
      vertex 21.15 34.65 10
      vertex -21.15 34.65 10
      vertex 19.15 32.65 10
    endloop
  endfacet
  facet normal 0 0 1
    outer loop
      vertex 21.15 7.85 10
      vertex 23.65 2.25 10
      vertex 22.425 5.85 10
    endloop
  endfacet
  facet normal 0 0 1
    outer loop
      vertex 21.15 7.85 10
      vertex 25.15 -2.25 10
      vertex 23.65 2.25 10
    endloop
  endfacet
  facet normal 0 0 1
    outer loop
      vertex 43.05 14.05 10
      vertex 41.05 12.775 10
      vertex 43.05 12.775 10
    endloop
  endfacet
  facet normal 0 0 1
    outer loop
      vertex 49.25 -14.05 10
      vertex 43.05 -14.05 10
      vertex 49.25 -16.05 10
    endloop
  endfacet
  facet normal 0 0 1
    outer loop
      vertex 43.05 14.05 10
      vertex 23.15 16.05 10
      vertex 41.05 12.775 10
    endloop
  endfacet
  facet normal 0 0 1
    outer loop
      vertex 49.25 16.05 10
      vertex 23.15 16.05 10
      vertex 43.05 14.05 10
    endloop
  endfacet
  facet normal 0 0 1
    outer loop
      vertex 21.15 7.85 10
      vertex 23.65 -2.25 10
      vertex 25.15 -2.25 10
    endloop
  endfacet
  facet normal 0 0 1
    outer loop
      vertex 21.15 7.85 10
      vertex 23.65 -5.85 10
      vertex 23.65 -2.25 10
    endloop
  endfacet
  facet normal 0 0 1
    outer loop
      vertex 21.15 7.85 10
      vertex 22.425 -5.85 10
      vertex 23.65 -5.85 10
    endloop
  endfacet
  facet normal 0 0 1
    outer loop
      vertex 21.15 7.85 10
      vertex 22.425 -7.85 10
      vertex 22.425 -5.85 10
    endloop
  endfacet
  facet normal 0 0 1
    outer loop
      vertex -19.15 32.65 10
      vertex 19.15 32.65 10
      vertex -21.15 34.65 10
    endloop
  endfacet
  facet normal 1 0 0
    outer loop
      vertex 21.15 -34.65 10
      vertex 21.15 -34.65 -10
      vertex 21.15 -18.05 -10
    endloop
  endfacet
  facet normal 1 0 0
    outer loop
      vertex 21.15 -18.05 10
      vertex 21.15 -34.65 10
      vertex 21.15 -18.05 -10
    endloop
  endfacet
  facet normal 0.707107 -0.707107 0
    outer loop
      vertex 21.15 -18.05 10
      vertex 21.15 -18.05 -10
      vertex 23.15 -16.05 -10
    endloop
  endfacet
  facet normal 0.707107 -0.707107 0
    outer loop
      vertex 23.15 -16.05 10
      vertex 21.15 -18.05 10
      vertex 23.15 -16.05 -10
    endloop
  endfacet
  facet normal 0 -1 0
    outer loop
      vertex 35.2 -16.05 -6.5875
      vertex 23.15 -16.05 -10
      vertex 49.25 -16.05 -10
    endloop
  endfacet
  facet normal 0 -1 0
    outer loop
      vertex 35.2 -16.05 6.5875
      vertex 39.8394 -16.05 3.90893
      vertex 49.25 -16.05 10
    endloop
  endfacet
  facet normal 0 -1 0
    outer loop
      vertex 35.2 -16.05 -6.5875
      vertex 30.5606 -16.05 -3.90893
      vertex 23.15 -16.05 -10
    endloop
  endfacet
  facet normal 0 -1 0
    outer loop
      vertex 23.15 -16.05 10
      vertex 23.15 -16.05 -10
      vertex 29.4951 -16.05 -3.29375
    endloop
  endfacet
  facet normal 0 -1 0
    outer loop
      vertex 40.9049 -16.05 3.29375
      vertex 40.9049 -16.05 -3.29375
      vertex 49.25 -16.05 -10
    endloop
  endfacet
  facet normal 0 -1 0
    outer loop
      vertex 23.15 -16.05 10
      vertex 29.4951 -16.05 -3.29375
      vertex 29.4951 -16.05 3.29375
    endloop
  endfacet
  facet normal 0 -1 0
    outer loop
      vertex 35.2 -16.05 6.5875
      vertex 23.15 -16.05 10
      vertex 34.1345 -16.05 5.97232
    endloop
  endfacet
  facet normal 0 -1 0
    outer loop
      vertex 49.25 -16.05 10
      vertex 23.15 -16.05 10
      vertex 35.2 -16.05 6.5875
    endloop
  endfacet
  facet normal 0 -1 0
    outer loop
      vertex 40.9049 -16.05 -3.29375
      vertex 36.2655 -16.05 -5.97232
      vertex 49.25 -16.05 -10
    endloop
  endfacet
  facet normal 0 -1 0
    outer loop
      vertex 49.25 -16.05 10
      vertex 40.9049 -16.05 3.29375
      vertex 49.25 -16.05 -10
    endloop
  endfacet
  facet normal 0 -1 0
    outer loop
      vertex 49.25 -16.05 10
      vertex 39.8394 -16.05 3.90893
      vertex 40.9049 -16.05 3.29375
    endloop
  endfacet
  facet normal 0 -1 0
    outer loop
      vertex 36.2655 -16.05 -5.97232
      vertex 35.2 -16.05 -6.5875
      vertex 49.25 -16.05 -10
    endloop
  endfacet
  facet normal 0 -1 0
    outer loop
      vertex 29.4951 -16.05 -3.29375
      vertex 23.15 -16.05 -10
      vertex 30.5606 -16.05 -3.90893
    endloop
  endfacet
  facet normal 0 -1 0
    outer loop
      vertex 29.4951 -16.05 3.29375
      vertex 34.1345 -16.05 5.97232
      vertex 23.15 -16.05 10
    endloop
  endfacet
  facet normal 1 0 0
    outer loop
      vertex 49.25 -16.05 10
      vertex 49.25 -16.05 -10
      vertex 49.25 -14.05 -10
    endloop
  endfacet
  facet normal 1 0 0
    outer loop
      vertex 49.25 -14.05 10
      vertex 49.25 -16.05 10
      vertex 49.25 -14.05 -10
    endloop
  endfacet
  facet normal 0 1 0
    outer loop
      vertex 43.05 -14.05 -10
      vertex 43.05 -14.05 10
      vertex 49.25 -14.05 -10
    endloop
  endfacet
  facet normal 0 1 0
    outer loop
      vertex 49.25 -14.05 -10
      vertex 43.05 -14.05 10
      vertex 49.25 -14.05 10
    endloop
  endfacet
  facet normal 1 -2.22045e-16 0
    outer loop
      vertex 43.05 -14.05 10
      vertex 43.05 -14.05 -10
      vertex 43.05 -12.775 -10
    endloop
  endfacet
  facet normal 1 -2.22045e-16 0
    outer loop
      vertex 43.05 -12.775 10
      vertex 43.05 -14.05 10
      vertex 43.05 -12.775 -10
    endloop
  endfacet
  facet normal 2.22045e-16 1 0
    outer loop
      vertex 41.05 -12.775 -10
      vertex 41.05 -12.775 10
      vertex 43.05 -12.775 -10
    endloop
  endfacet
  facet normal 2.22045e-16 1 0
    outer loop
      vertex 43.05 -12.775 -10
      vertex 41.05 -12.775 10
      vertex 43.05 -12.775 10
    endloop
  endfacet
  facet normal 1 -2.22045e-16 0
    outer loop
      vertex 41.05 -12.775 10
      vertex 41.05 -12.775 -10
      vertex 41.05 -11.55 -10
    endloop
  endfacet
  facet normal 1 -2.22045e-16 0
    outer loop
      vertex 41.05 -11.55 10
      vertex 41.05 -12.775 10
      vertex 41.05 -11.55 -10
    endloop
  endfacet
  facet normal 2.22045e-16 1 0
    outer loop
      vertex 37.495 -11.55 -1.325
      vertex 41.05 -11.55 -10
      vertex 35.2 -11.55 -2.65
    endloop
  endfacet
  facet normal 2.22045e-16 1 0
    outer loop
      vertex 37.495 -11.55 1.325
      vertex 29.35 -11.55 10
      vertex 41.05 -11.55 10
    endloop
  endfacet
  facet normal 2.22045e-16 1 0
    outer loop
      vertex 29.35 -11.55 -10
      vertex 29.35 -11.55 10
      vertex 32.905 -11.55 1.325
    endloop
  endfacet
  facet normal 2.22045e-16 1 0
    outer loop
      vertex 29.35 -11.55 -10
      vertex 32.905 -11.55 1.325
      vertex 32.905 -11.55 -1.325
    endloop
  endfacet
  facet normal 2.22045e-16 1 0
    outer loop
      vertex 29.35 -11.55 -10
      vertex 32.905 -11.55 -1.325
      vertex 41.05 -11.55 -10
    endloop
  endfacet
  facet normal 2.22045e-16 1 0
    outer loop
      vertex 32.905 -11.55 -1.325
      vertex 35.2 -11.55 -2.65
      vertex 41.05 -11.55 -10
    endloop
  endfacet
  facet normal 2.22045e-16 1 0
    outer loop
      vertex 41.05 -11.55 -10
      vertex 37.495 -11.55 -1.325
      vertex 41.05 -11.55 10
    endloop
  endfacet
  facet normal 2.22045e-16 1 0
    outer loop
      vertex 35.2 -11.55 2.65
      vertex 29.35 -11.55 10
      vertex 37.495 -11.55 1.325
    endloop
  endfacet
  facet normal 2.22045e-16 1 0
    outer loop
      vertex 37.495 -11.55 -1.325
      vertex 37.495 -11.55 1.325
      vertex 41.05 -11.55 10
    endloop
  endfacet
  facet normal 2.22045e-16 1 0
    outer loop
      vertex 32.905 -11.55 1.325
      vertex 29.35 -11.55 10
      vertex 35.2 -11.55 2.65
    endloop
  endfacet
  facet normal -1 2.22045e-16 0
    outer loop
      vertex 29.35 -12.775 -10
      vertex 29.35 -12.775 10
      vertex 29.35 -11.55 -10
    endloop
  endfacet
  facet normal -1 2.22045e-16 0
    outer loop
      vertex 29.35 -11.55 -10
      vertex 29.35 -12.775 10
      vertex 29.35 -11.55 10
    endloop
  endfacet
  facet normal 2.22045e-16 1 0
    outer loop
      vertex 27.35 -12.775 -10
      vertex 27.35 -12.775 10
      vertex 29.35 -12.775 -10
    endloop
  endfacet
  facet normal 2.22045e-16 1 0
    outer loop
      vertex 29.35 -12.775 -10
      vertex 27.35 -12.775 10
      vertex 29.35 -12.775 10
    endloop
  endfacet
  facet normal -1 2.22045e-16 0
    outer loop
      vertex 27.35 -14.05 -10
      vertex 27.35 -14.05 10
      vertex 27.35 -12.775 -10
    endloop
  endfacet
  facet normal -1 2.22045e-16 0
    outer loop
      vertex 27.35 -12.775 -10
      vertex 27.35 -14.05 10
      vertex 27.35 -12.775 10
    endloop
  endfacet
  facet normal 0 1 0
    outer loop
      vertex 21.15 -14.05 -10
      vertex 21.15 -14.05 10
      vertex 27.35 -14.05 -10
    endloop
  endfacet
  facet normal 0 1 0
    outer loop
      vertex 27.35 -14.05 -10
      vertex 21.15 -14.05 10
      vertex 27.35 -14.05 10
    endloop
  endfacet
  facet normal 1 0 0
    outer loop
      vertex 21.15 -14.05 10
      vertex 21.15 -14.05 -10
      vertex 21.15 -7.85 -10
    endloop
  endfacet
  facet normal 1 0 0
    outer loop
      vertex 21.15 -7.85 10
      vertex 21.15 -14.05 10
      vertex 21.15 -7.85 -10
    endloop
  endfacet
  facet normal 0 -1 0
    outer loop
      vertex 21.15 -7.85 10
      vertex 21.15 -7.85 -10
      vertex 22.425 -7.85 -10
    endloop
  endfacet
  facet normal 0 -1 0
    outer loop
      vertex 22.425 -7.85 10
      vertex 21.15 -7.85 10
      vertex 22.425 -7.85 -10
    endloop
  endfacet
  facet normal 1 0 0
    outer loop
      vertex 22.425 -7.85 10
      vertex 22.425 -7.85 -10
      vertex 22.425 -5.85 -10
    endloop
  endfacet
  facet normal 1 0 0
    outer loop
      vertex 22.425 -5.85 10
      vertex 22.425 -7.85 10
      vertex 22.425 -5.85 -10
    endloop
  endfacet
  facet normal 0 -1 0
    outer loop
      vertex 22.425 -5.85 10
      vertex 22.425 -5.85 -10
      vertex 23.65 -5.85 -10
    endloop
  endfacet
  facet normal 0 -1 0
    outer loop
      vertex 23.65 -5.85 10
      vertex 22.425 -5.85 10
      vertex 23.65 -5.85 -10
    endloop
  endfacet
  facet normal 1 0 0
    outer loop
      vertex 23.65 -5.85 10
      vertex 23.65 -5.85 -10
      vertex 23.65 -2.25 -10
    endloop
  endfacet
  facet normal 1 0 0
    outer loop
      vertex 23.65 -2.25 10
      vertex 23.65 -5.85 10
      vertex 23.65 -2.25 -10
    endloop
  endfacet
  facet normal 0 -1 0
    outer loop
      vertex 23.65 -2.25 10
      vertex 23.65 -2.25 -10
      vertex 25.15 -2.25 -10
    endloop
  endfacet
  facet normal 0 -1 0
    outer loop
      vertex 25.15 -2.25 10
      vertex 23.65 -2.25 10
      vertex 25.15 -2.25 -10
    endloop
  endfacet
  facet normal 1 0 0
    outer loop
      vertex 25.15 -2.25 10
      vertex 25.15 -2.25 -10
      vertex 25.15 2.25 -10
    endloop
  endfacet
  facet normal 1 0 0
    outer loop
      vertex 25.15 2.25 10
      vertex 25.15 -2.25 10
      vertex 25.15 2.25 -10
    endloop
  endfacet
  facet normal 0 1 0
    outer loop
      vertex 23.65 2.25 -10
      vertex 23.65 2.25 10
      vertex 25.15 2.25 -10
    endloop
  endfacet
  facet normal 0 1 0
    outer loop
      vertex 25.15 2.25 -10
      vertex 23.65 2.25 10
      vertex 25.15 2.25 10
    endloop
  endfacet
  facet normal 1 0 0
    outer loop
      vertex 23.65 2.25 10
      vertex 23.65 2.25 -10
      vertex 23.65 5.85 -10
    endloop
  endfacet
  facet normal 1 0 0
    outer loop
      vertex 23.65 5.85 10
      vertex 23.65 2.25 10
      vertex 23.65 5.85 -10
    endloop
  endfacet
  facet normal 0 1 0
    outer loop
      vertex 22.425 5.85 -10
      vertex 22.425 5.85 10
      vertex 23.65 5.85 -10
    endloop
  endfacet
  facet normal 0 1 0
    outer loop
      vertex 23.65 5.85 -10
      vertex 22.425 5.85 10
      vertex 23.65 5.85 10
    endloop
  endfacet
  facet normal 1 0 0
    outer loop
      vertex 22.425 5.85 10
      vertex 22.425 5.85 -10
      vertex 22.425 7.85 -10
    endloop
  endfacet
  facet normal 1 0 0
    outer loop
      vertex 22.425 7.85 10
      vertex 22.425 5.85 10
      vertex 22.425 7.85 -10
    endloop
  endfacet
  facet normal 0 1 0
    outer loop
      vertex 21.15 7.85 -10
      vertex 21.15 7.85 10
      vertex 22.425 7.85 -10
    endloop
  endfacet
  facet normal 0 1 0
    outer loop
      vertex 22.425 7.85 -10
      vertex 21.15 7.85 10
      vertex 22.425 7.85 10
    endloop
  endfacet
  facet normal 1 0 0
    outer loop
      vertex 21.15 7.85 10
      vertex 21.15 7.85 -10
      vertex 21.15 14.05 -10
    endloop
  endfacet
  facet normal 1 0 0
    outer loop
      vertex 21.15 14.05 10
      vertex 21.15 7.85 10
      vertex 21.15 14.05 -10
    endloop
  endfacet
  facet normal 0 -1 0
    outer loop
      vertex 21.15 14.05 10
      vertex 21.15 14.05 -10
      vertex 27.35 14.05 -10
    endloop
  endfacet
  facet normal 0 -1 0
    outer loop
      vertex 27.35 14.05 10
      vertex 21.15 14.05 10
      vertex 27.35 14.05 -10
    endloop
  endfacet
  facet normal -1 2.22045e-16 0
    outer loop
      vertex 27.35 12.775 -10
      vertex 27.35 12.775 10
      vertex 27.35 14.05 -10
    endloop
  endfacet
  facet normal -1 2.22045e-16 0
    outer loop
      vertex 27.35 14.05 -10
      vertex 27.35 12.775 10
      vertex 27.35 14.05 10
    endloop
  endfacet
  facet normal -2.22045e-16 -1 0
    outer loop
      vertex 27.35 12.775 10
      vertex 27.35 12.775 -10
      vertex 29.35 12.775 -10
    endloop
  endfacet
  facet normal -2.22045e-16 -1 0
    outer loop
      vertex 29.35 12.775 10
      vertex 27.35 12.775 10
      vertex 29.35 12.775 -10
    endloop
  endfacet
  facet normal -1 2.22045e-16 0
    outer loop
      vertex 29.35 11.55 -10
      vertex 29.35 11.55 10
      vertex 29.35 12.775 -10
    endloop
  endfacet
  facet normal -1 2.22045e-16 0
    outer loop
      vertex 29.35 12.775 -10
      vertex 29.35 11.55 10
      vertex 29.35 12.775 10
    endloop
  endfacet
  facet normal -2.22045e-16 -1 0
    outer loop
      vertex 32.905 11.55 -1.325
      vertex 29.35 11.55 -10
      vertex 41.05 11.55 -10
    endloop
  endfacet
  facet normal -2.22045e-16 -1 0
    outer loop
      vertex 35.2 11.55 -2.65
      vertex 32.905 11.55 -1.325
      vertex 41.05 11.55 -10
    endloop
  endfacet
  facet normal -2.22045e-16 -1 0
    outer loop
      vertex 29.35 11.55 10
      vertex 29.35 11.55 -10
      vertex 32.905 11.55 -1.325
    endloop
  endfacet
  facet normal -2.22045e-16 -1 0
    outer loop
      vertex 29.35 11.55 10
      vertex 32.905 11.55 -1.325
      vertex 32.905 11.55 1.325
    endloop
  endfacet
  facet normal -2.22045e-16 -1 0
    outer loop
      vertex 41.05 11.55 10
      vertex 29.35 11.55 10
      vertex 35.2 11.55 2.65
    endloop
  endfacet
  facet normal -2.22045e-16 -1 0
    outer loop
      vertex 41.05 11.55 10
      vertex 37.495 11.55 1.325
      vertex 41.05 11.55 -10
    endloop
  endfacet
  facet normal -2.22045e-16 -1 0
    outer loop
      vertex 41.05 11.55 10
      vertex 35.2 11.55 2.65
      vertex 37.495 11.55 1.325
    endloop
  endfacet
  facet normal -2.22045e-16 -1 0
    outer loop
      vertex 37.495 11.55 1.325
      vertex 37.495 11.55 -1.325
      vertex 41.05 11.55 -10
    endloop
  endfacet
  facet normal -2.22045e-16 -1 0
    outer loop
      vertex 32.905 11.55 1.325
      vertex 35.2 11.55 2.65
      vertex 29.35 11.55 10
    endloop
  endfacet
  facet normal -2.22045e-16 -1 0
    outer loop
      vertex 37.495 11.55 -1.325
      vertex 35.2 11.55 -2.65
      vertex 41.05 11.55 -10
    endloop
  endfacet
  facet normal 1 -2.22045e-16 0
    outer loop
      vertex 41.05 11.55 10
      vertex 41.05 11.55 -10
      vertex 41.05 12.775 -10
    endloop
  endfacet
  facet normal 1 -2.22045e-16 0
    outer loop
      vertex 41.05 12.775 10
      vertex 41.05 11.55 10
      vertex 41.05 12.775 -10
    endloop
  endfacet
  facet normal -2.22045e-16 -1 0
    outer loop
      vertex 41.05 12.775 10
      vertex 41.05 12.775 -10
      vertex 43.05 12.775 -10
    endloop
  endfacet
  facet normal -2.22045e-16 -1 0
    outer loop
      vertex 43.05 12.775 10
      vertex 41.05 12.775 10
      vertex 43.05 12.775 -10
    endloop
  endfacet
  facet normal 1 -2.22045e-16 0
    outer loop
      vertex 43.05 12.775 10
      vertex 43.05 12.775 -10
      vertex 43.05 14.05 -10
    endloop
  endfacet
  facet normal 1 -2.22045e-16 0
    outer loop
      vertex 43.05 14.05 10
      vertex 43.05 12.775 10
      vertex 43.05 14.05 -10
    endloop
  endfacet
  facet normal 0 -1 0
    outer loop
      vertex 43.05 14.05 10
      vertex 43.05 14.05 -10
      vertex 49.25 14.05 -10
    endloop
  endfacet
  facet normal 0 -1 0
    outer loop
      vertex 49.25 14.05 10
      vertex 43.05 14.05 10
      vertex 49.25 14.05 -10
    endloop
  endfacet
  facet normal 1 0 0
    outer loop
      vertex 49.25 14.05 10
      vertex 49.25 14.05 -10
      vertex 49.25 16.05 -10
    endloop
  endfacet
  facet normal 1 0 0
    outer loop
      vertex 49.25 16.05 10
      vertex 49.25 14.05 10
      vertex 49.25 16.05 -10
    endloop
  endfacet
  facet normal 0 1 0
    outer loop
      vertex 35.2 16.05 6.5875
      vertex 23.15 16.05 10
      vertex 49.25 16.05 10
    endloop
  endfacet
  facet normal 0 1 0
    outer loop
      vertex 23.15 16.05 -10
      vertex 23.15 16.05 10
      vertex 29.4951 16.05 3.29375
    endloop
  endfacet
  facet normal 0 1 0
    outer loop
      vertex 23.15 16.05 -10
      vertex 29.4951 16.05 3.29375
      vertex 29.4951 16.05 -3.29375
    endloop
  endfacet
  facet normal 0 1 0
    outer loop
      vertex 23.15 16.05 -10
      vertex 29.4951 16.05 -3.29375
      vertex 34.1345 16.05 -5.97232
    endloop
  endfacet
  facet normal 0 1 0
    outer loop
      vertex 23.15 16.05 -10
      vertex 34.1345 16.05 -5.97232
      vertex 35.2 16.05 -6.5875
    endloop
  endfacet
  facet normal 0 1 0
    outer loop
      vertex 23.15 16.05 -10
      vertex 35.2 16.05 -6.5875
      vertex 49.25 16.05 -10
    endloop
  endfacet
  facet normal 0 1 0
    outer loop
      vertex 40.9049 16.05 -3.29375
      vertex 49.25 16.05 -10
      vertex 39.8394 16.05 -3.90893
    endloop
  endfacet
  facet normal 0 1 0
    outer loop
      vertex 30.5606 16.05 3.90893
      vertex 23.15 16.05 10
      vertex 35.2 16.05 6.5875
    endloop
  endfacet
  facet normal 0 1 0
    outer loop
      vertex 49.25 16.05 -10
      vertex 40.9049 16.05 -3.29375
      vertex 49.25 16.05 10
    endloop
  endfacet
  facet normal 0 1 0
    outer loop
      vertex 40.9049 16.05 -3.29375
      vertex 40.9049 16.05 3.29375
      vertex 49.25 16.05 10
    endloop
  endfacet
  facet normal 0 1 0
    outer loop
      vertex 40.9049 16.05 3.29375
      vertex 36.2655 16.05 5.97232
      vertex 49.25 16.05 10
    endloop
  endfacet
  facet normal 0 1 0
    outer loop
      vertex 36.2655 16.05 5.97232
      vertex 35.2 16.05 6.5875
      vertex 49.25 16.05 10
    endloop
  endfacet
  facet normal 0 1 0
    outer loop
      vertex 29.4951 16.05 3.29375
      vertex 23.15 16.05 10
      vertex 30.5606 16.05 3.90893
    endloop
  endfacet
  facet normal 0 1 0
    outer loop
      vertex 39.8394 16.05 -3.90893
      vertex 49.25 16.05 -10
      vertex 35.2 16.05 -6.5875
    endloop
  endfacet
  facet normal 0.707107 0.707107 0
    outer loop
      vertex 21.15 18.05 -10
      vertex 21.15 18.05 10
      vertex 23.15 16.05 -10
    endloop
  endfacet
  facet normal 0.707107 0.707107 0
    outer loop
      vertex 23.15 16.05 -10
      vertex 21.15 18.05 10
      vertex 23.15 16.05 10
    endloop
  endfacet
  facet normal 1 0 0
    outer loop
      vertex 21.15 18.05 10
      vertex 21.15 18.05 -10
      vertex 21.15 34.65 -10
    endloop
  endfacet
  facet normal 1 0 0
    outer loop
      vertex 21.15 34.65 10
      vertex 21.15 18.05 10
      vertex 21.15 34.65 -10
    endloop
  endfacet
  facet normal 1 0 0
    outer loop
      vertex -19.15 32.65 -10
      vertex -19.15 32.65 10
      vertex -19.15 -32.65 10
    endloop
  endfacet
  facet normal 1 0 0
    outer loop
      vertex -19.15 -32.65 -10
      vertex -19.15 32.65 -10
      vertex -19.15 -32.65 10
    endloop
  endfacet
  facet normal 0 -1 0
    outer loop
      vertex 19.15 32.65 -10
      vertex 19.15 32.65 10
      vertex -19.15 32.65 10
    endloop
  endfacet
  facet normal 0 -1 0
    outer loop
      vertex -19.15 32.65 -10
      vertex 19.15 32.65 -10
      vertex -19.15 32.65 10
    endloop
  endfacet
  facet normal -1 0 0
    outer loop
      vertex 19.15 32.65 10
      vertex 19.15 32.65 -10
      vertex 19.15 -32.65 10
    endloop
  endfacet
  facet normal -1 0 0
    outer loop
      vertex 19.15 -32.65 10
      vertex 19.15 32.65 -10
      vertex 19.15 -32.65 -10
    endloop
  endfacet
  facet normal 0 1 0
    outer loop
      vertex 19.15 -32.65 10
      vertex 19.15 -32.65 -10
      vertex -19.15 -32.65 10
    endloop
  endfacet
  facet normal 0 1 0
    outer loop
      vertex -19.15 -32.65 10
      vertex 19.15 -32.65 -10
      vertex -19.15 -32.65 -10
    endloop
  endfacet
  facet normal 0.369927 -0.672768 0.640732
    outer loop
      vertex 30.5606 -16.05 -3.90893
      vertex 35.2 -12.3 -2.65
      vertex 32.905 -12.3 -1.325
    endloop
  endfacet
  facet normal 0.369927 -0.672768 0.640732
    outer loop
      vertex 32.905 -12.3 -1.325
      vertex 29.4951 -16.05 -3.29375
      vertex 30.5606 -16.05 -3.90893
    endloop
  endfacet
  facet normal 0.739853 -0.672768 -1.49385e-16
    outer loop
      vertex 32.905 -12.3 -1.325
      vertex 32.905 -12.3 1.325
      vertex 29.4951 -16.05 3.29375
    endloop
  endfacet
  facet normal 0.739853 -0.672768 -1.49385e-16
    outer loop
      vertex 29.4951 -16.05 -3.29375
      vertex 32.905 -12.3 -1.325
      vertex 29.4951 -16.05 3.29375
    endloop
  endfacet
  facet normal 0.369927 -0.672768 0.640732
    outer loop
      vertex 30.5606 -16.05 -3.90893
      vertex 35.2 -16.05 -6.5875
      vertex 35.2 -12.3 -2.65
    endloop
  endfacet
  facet normal -0.369927 -0.672768 0.640732
    outer loop
      vertex 36.2655 -16.05 -5.97232
      vertex 37.495 -12.3 -1.325
      vertex 35.2 -12.3 -2.65
    endloop
  endfacet
  facet normal -0.369927 -0.672768 0.640732
    outer loop
      vertex 35.2 -16.05 -6.5875
      vertex 36.2655 -16.05 -5.97232
      vertex 35.2 -12.3 -2.65
    endloop
  endfacet
  facet normal -0.369927 -0.672768 0.640732
    outer loop
      vertex 37.495 -12.3 -1.325
      vertex 36.2655 -16.05 -5.97232
      vertex 40.9049 -16.05 -3.29375
    endloop
  endfacet
  facet normal -0.739853 -0.672768 -1.49385e-16
    outer loop
      vertex 37.495 -12.3 -1.325
      vertex 40.9049 -16.05 -3.29375
      vertex 37.495 -12.3 1.325
    endloop
  endfacet
  facet normal -0.739853 -0.672768 -1.49385e-16
    outer loop
      vertex 37.495 -12.3 1.325
      vertex 40.9049 -16.05 -3.29375
      vertex 40.9049 -16.05 3.29375
    endloop
  endfacet
  facet normal -0.369927 -0.672768 -0.640732
    outer loop
      vertex 37.495 -12.3 1.325
      vertex 40.9049 -16.05 3.29375
      vertex 39.8394 -16.05 3.90893
    endloop
  endfacet
  facet normal -0.369927 -0.672768 -0.640732
    outer loop
      vertex 35.2 -12.3 2.65
      vertex 37.495 -12.3 1.325
      vertex 39.8394 -16.05 3.90893
    endloop
  endfacet
  facet normal -0.369927 -0.672768 -0.640732
    outer loop
      vertex 35.2 -12.3 2.65
      vertex 39.8394 -16.05 3.90893
      vertex 35.2 -16.05 6.5875
    endloop
  endfacet
  facet normal 0.369927 -0.672768 -0.640732
    outer loop
      vertex 35.2 -12.3 2.65
      vertex 35.2 -16.05 6.5875
      vertex 34.1345 -16.05 5.97232
    endloop
  endfacet
  facet normal 0.369927 -0.672768 -0.640732
    outer loop
      vertex 32.905 -12.3 1.325
      vertex 35.2 -12.3 2.65
      vertex 34.1345 -16.05 5.97232
    endloop
  endfacet
  facet normal 0.369927 -0.672768 -0.640732
    outer loop
      vertex 32.905 -12.3 1.325
      vertex 34.1345 -16.05 5.97232
      vertex 29.4951 -16.05 3.29375
    endloop
  endfacet
  facet normal 1 -2.22045e-16 0
    outer loop
      vertex 32.905 -11.55 1.325
      vertex 32.905 -12.3 -1.325
      vertex 32.905 -11.55 -1.325
    endloop
  endfacet
  facet normal 1 -2.22045e-16 0
    outer loop
      vertex 32.905 -12.3 1.325
      vertex 32.905 -12.3 -1.325
      vertex 32.905 -11.55 1.325
    endloop
  endfacet
  facet normal 0.5 8.12739e-17 -0.866025
    outer loop
      vertex 35.2 -11.55 2.65
      vertex 35.2 -12.3 2.65
      vertex 32.905 -11.55 1.325
    endloop
  endfacet
  facet normal 0.5 8.12739e-17 -0.866025
    outer loop
      vertex 32.905 -11.55 1.325
      vertex 35.2 -12.3 2.65
      vertex 32.905 -12.3 1.325
    endloop
  endfacet
  facet normal -0.5 3.03319e-16 -0.866025
    outer loop
      vertex 37.495 -11.55 1.325
      vertex 37.495 -12.3 1.325
      vertex 35.2 -11.55 2.65
    endloop
  endfacet
  facet normal -0.5 3.03319e-16 -0.866025
    outer loop
      vertex 35.2 -11.55 2.65
      vertex 37.495 -12.3 1.325
      vertex 35.2 -12.3 2.65
    endloop
  endfacet
  facet normal -1 2.22045e-16 0
    outer loop
      vertex 37.495 -11.55 -1.325
      vertex 37.495 -12.3 -1.325
      vertex 37.495 -11.55 1.325
    endloop
  endfacet
  facet normal -1 2.22045e-16 0
    outer loop
      vertex 37.495 -12.3 1.325
      vertex 37.495 -11.55 1.325
      vertex 37.495 -12.3 -1.325
    endloop
  endfacet
  facet normal -0.5 -8.12739e-17 0.866025
    outer loop
      vertex 35.2 -12.3 -2.65
      vertex 37.495 -12.3 -1.325
      vertex 35.2 -11.55 -2.65
    endloop
  endfacet
  facet normal -0.5 -8.12739e-17 0.866025
    outer loop
      vertex 35.2 -11.55 -2.65
      vertex 37.495 -12.3 -1.325
      vertex 37.495 -11.55 -1.325
    endloop
  endfacet
  facet normal 0.5 -3.03319e-16 0.866025
    outer loop
      vertex 32.905 -12.3 -1.325
      vertex 35.2 -12.3 -2.65
      vertex 32.905 -11.55 -1.325
    endloop
  endfacet
  facet normal 0.5 -3.03319e-16 0.866025
    outer loop
      vertex 32.905 -11.55 -1.325
      vertex 35.2 -12.3 -2.65
      vertex 35.2 -11.55 -2.65
    endloop
  endfacet
  facet normal 1 -2.22045e-16 0
    outer loop
      vertex 32.905 11.55 1.325
      vertex 32.905 12.3 -1.325
      vertex 32.905 12.3 1.325
    endloop
  endfacet
  facet normal 1 -2.22045e-16 0
    outer loop
      vertex 32.905 11.55 -1.325
      vertex 32.905 12.3 -1.325
      vertex 32.905 11.55 1.325
    endloop
  endfacet
  facet normal 0.5 8.12739e-17 0.866025
    outer loop
      vertex 35.2 11.55 -2.65
      vertex 35.2 12.3 -2.65
      vertex 32.905 12.3 -1.325
    endloop
  endfacet
  facet normal 0.5 8.12739e-17 0.866025
    outer loop
      vertex 32.905 11.55 -1.325
      vertex 35.2 11.55 -2.65
      vertex 32.905 12.3 -1.325
    endloop
  endfacet
  facet normal -0.5 3.03319e-16 0.866025
    outer loop
      vertex 37.495 11.55 -1.325
      vertex 37.495 12.3 -1.325
      vertex 35.2 12.3 -2.65
    endloop
  endfacet
  facet normal -0.5 3.03319e-16 0.866025
    outer loop
      vertex 35.2 12.3 -2.65
      vertex 35.2 11.55 -2.65
      vertex 37.495 11.55 -1.325
    endloop
  endfacet
  facet normal -1 2.22045e-16 0
    outer loop
      vertex 37.495 12.3 1.325
      vertex 37.495 12.3 -1.325
      vertex 37.495 11.55 1.325
    endloop
  endfacet
  facet normal -1 2.22045e-16 0
    outer loop
      vertex 37.495 11.55 1.325
      vertex 37.495 12.3 -1.325
      vertex 37.495 11.55 -1.325
    endloop
  endfacet
  facet normal -0.5 -8.12739e-17 -0.866025
    outer loop
      vertex 37.495 12.3 1.325
      vertex 37.495 11.55 1.325
      vertex 35.2 12.3 2.65
    endloop
  endfacet
  facet normal -0.5 -8.12739e-17 -0.866025
    outer loop
      vertex 35.2 12.3 2.65
      vertex 37.495 11.55 1.325
      vertex 35.2 11.55 2.65
    endloop
  endfacet
  facet normal 0.5 -3.03319e-16 -0.866025
    outer loop
      vertex 35.2 12.3 2.65
      vertex 35.2 11.55 2.65
      vertex 32.905 12.3 1.325
    endloop
  endfacet
  facet normal 0.5 -3.03319e-16 -0.866025
    outer loop
      vertex 32.905 12.3 1.325
      vertex 35.2 11.55 2.65
      vertex 32.905 11.55 1.325
    endloop
  endfacet
  facet normal 0.739853 0.672768 -1.49385e-16
    outer loop
      vertex 29.4951 16.05 -3.29375
      vertex 29.4951 16.05 3.29375
      vertex 32.905 12.3 -1.325
    endloop
  endfacet
  facet normal 0.739853 0.672768 -1.49385e-16
    outer loop
      vertex 32.905 12.3 -1.325
      vertex 29.4951 16.05 3.29375
      vertex 32.905 12.3 1.325
    endloop
  endfacet
  facet normal 0.369927 0.672768 -0.640732
    outer loop
      vertex 35.2 12.3 2.65
      vertex 32.905 12.3 1.325
      vertex 30.5606 16.05 3.90893
    endloop
  endfacet
  facet normal 0.369927 0.672768 -0.640732
    outer loop
      vertex 30.5606 16.05 3.90893
      vertex 32.905 12.3 1.325
      vertex 29.4951 16.05 3.29375
    endloop
  endfacet
  facet normal 0.369927 0.672768 -0.640732
    outer loop
      vertex 35.2 16.05 6.5875
      vertex 35.2 12.3 2.65
      vertex 30.5606 16.05 3.90893
    endloop
  endfacet
  facet normal -0.369927 0.672768 -0.640732
    outer loop
      vertex 36.2655 16.05 5.97232
      vertex 37.495 12.3 1.325
      vertex 35.2 16.05 6.5875
    endloop
  endfacet
  facet normal -0.369927 0.672768 -0.640732
    outer loop
      vertex 35.2 16.05 6.5875
      vertex 37.495 12.3 1.325
      vertex 35.2 12.3 2.65
    endloop
  endfacet
  facet normal -0.369927 0.672768 -0.640732
    outer loop
      vertex 40.9049 16.05 3.29375
      vertex 37.495 12.3 1.325
      vertex 36.2655 16.05 5.97232
    endloop
  endfacet
  facet normal -0.739853 0.672768 -1.49385e-16
    outer loop
      vertex 37.495 12.3 1.325
      vertex 40.9049 16.05 3.29375
      vertex 40.9049 16.05 -3.29375
    endloop
  endfacet
  facet normal -0.739853 0.672768 -1.49385e-16
    outer loop
      vertex 37.495 12.3 1.325
      vertex 40.9049 16.05 -3.29375
      vertex 37.495 12.3 -1.325
    endloop
  endfacet
  facet normal -0.369927 0.672768 0.640732
    outer loop
      vertex 37.495 12.3 -1.325
      vertex 40.9049 16.05 -3.29375
      vertex 39.8394 16.05 -3.90893
    endloop
  endfacet
  facet normal -0.369927 0.672768 0.640732
    outer loop
      vertex 37.495 12.3 -1.325
      vertex 39.8394 16.05 -3.90893
      vertex 35.2 12.3 -2.65
    endloop
  endfacet
  facet normal -0.369927 0.672768 0.640732
    outer loop
      vertex 39.8394 16.05 -3.90893
      vertex 35.2 16.05 -6.5875
      vertex 35.2 12.3 -2.65
    endloop
  endfacet
  facet normal 0.369927 0.672768 0.640732
    outer loop
      vertex 35.2 16.05 -6.5875
      vertex 34.1345 16.05 -5.97232
      vertex 35.2 12.3 -2.65
    endloop
  endfacet
  facet normal 0.369927 0.672768 0.640732
    outer loop
      vertex 35.2 12.3 -2.65
      vertex 34.1345 16.05 -5.97232
      vertex 32.905 12.3 -1.325
    endloop
  endfacet
  facet normal 0.369927 0.672768 0.640732
    outer loop
      vertex 32.905 12.3 -1.325
      vertex 34.1345 16.05 -5.97232
      vertex 29.4951 16.05 -3.29375
    endloop
  endfacet
endsolid OpenSCAD_Model
