solid OpenSCAD_Model
  facet normal 1 0 0
    outer loop
      vertex 8 4.5 0
      vertex 8 12.5 0
      vertex 8 12.5 30
    endloop
  endfacet
  facet normal 1 0 0
    outer loop
      vertex 8 4.5 30
      vertex 8 4.5 0
      vertex 8 12.5 30
    endloop
  endfacet
  facet normal 0 -1 0
    outer loop
      vertex 8 12.5 0
      vertex 12 12.5 0
      vertex 12 12.5 30
    endloop
  endfacet
  facet normal 0 -1 0
    outer loop
      vertex 8 12.5 30
      vertex 8 12.5 0
      vertex 12 12.5 30
    endloop
  endfacet
  facet normal 0 0 -1
    outer loop
      vertex 0 14 0
      vertex 1 15 0
      vertex 0 1 0
    endloop
  endfacet
  facet normal 0 0 -1
    outer loop
      vertex 12 12.5 0
      vertex 1 15 0
      vertex 19 15 0
    endloop
  endfacet
  facet normal 0 0 -1
    outer loop
      vertex 17 12.05 0
      vertex 20 14 0
      vertex 20 13 0
    endloop
  endfacet
  facet normal 0 0 -1
    outer loop
      vertex 12 12.5 0
      vertex 20 14 0
      vertex 17 12.05 0
    endloop
  endfacet
  facet normal 0 0 -1
    outer loop
      vertex 12 12.5 0
      vertex 19 15 0
      vertex 20 14 0
    endloop
  endfacet
  facet normal 0 0 -1
    outer loop
      vertex 8 12.5 0
      vertex 1 15 0
      vertex 12 12.5 0
    endloop
  endfacet
  facet normal 0 0 -1
    outer loop
      vertex 8 4.5 0
      vertex 0 1 0
      vertex 8 12.5 0
    endloop
  endfacet
  facet normal 0 0 -1
    outer loop
      vertex 0 1 0
      vertex 1 15 0
      vertex 8 12.5 0
    endloop
  endfacet
  facet normal 0 0 -1
    outer loop
      vertex 0 1 0
      vertex 8 4.5 0
      vertex 10 4.5 0
    endloop
  endfacet
  facet normal 0 0 -1
    outer loop
      vertex 10 4.5 0
      vertex 15 4.95 0
      vertex 0 1 0
    endloop
  endfacet
  facet normal 0 0 -1
    outer loop
      vertex 15 4.95 0
      vertex 17 5 0
      vertex 0 1 0
    endloop
  endfacet
  facet normal 0 0 -1
    outer loop
      vertex 0 1 0
      vertex 17 5 0
      vertex 18 4 0
    endloop
  endfacet
  facet normal 0 0 -1
    outer loop
      vertex 0 1 0
      vertex 18 4 0
      vertex 18 1 0
    endloop
  endfacet
  facet normal 0 0 -1
    outer loop
      vertex 0 1 0
      vertex 18 1 0
      vertex 17 0 0
    endloop
  endfacet
  facet normal 0 0 -1
    outer loop
      vertex 0 1 0
      vertex 17 0 0
      vertex 1 0 0
    endloop
  endfacet
  facet normal 0 0 -1
    outer loop
      vertex 17 12.05 0
      vertex 20 13 0
      vertex 19 12 0
    endloop
  endfacet
  facet normal 0 1 0
    outer loop
      vertex 8 4.5 30
      vertex 10 4.5 30
      vertex 8 4.5 0
    endloop
  endfacet
  facet normal 0 1 0
    outer loop
      vertex 8 4.5 0
      vertex 10 4.5 30
      vertex 10 4.5 0
    endloop
  endfacet
  facet normal 0 0 1
    outer loop
      vertex 0 1 30
      vertex 1 0 30
      vertex 17 0 30
    endloop
  endfacet
  facet normal 0 0 1
    outer loop
      vertex 18 4 30
      vertex 0 1 30
      vertex 18 1 30
    endloop
  endfacet
  facet normal 0 0 1
    outer loop
      vertex 18 1 30
      vertex 0 1 30
      vertex 17 0 30
    endloop
  endfacet
  facet normal 0 0 1
    outer loop
      vertex 17 5 30
      vertex 0 1 30
      vertex 18 4 30
    endloop
  endfacet
  facet normal 0 0 1
    outer loop
      vertex 15 4.95 30
      vertex 0 1 30
      vertex 17 5 30
    endloop
  endfacet
  facet normal 0 0 1
    outer loop
      vertex 10 4.5 30
      vertex 0 1 30
      vertex 15 4.95 30
    endloop
  endfacet
  facet normal 0 0 1
    outer loop
      vertex 8 4.5 30
      vertex 0 1 30
      vertex 10 4.5 30
    endloop
  endfacet
  facet normal 0 0 1
    outer loop
      vertex 8 12.5 30
      vertex 0 1 30
      vertex 8 4.5 30
    endloop
  endfacet
  facet normal 0 0 1
    outer loop
      vertex 1 15 30
      vertex 0 1 30
      vertex 8 12.5 30
    endloop
  endfacet
  facet normal 0 0 1
    outer loop
      vertex 20 13 30
      vertex 8 12.5 30
      vertex 12 12.5 30
    endloop
  endfacet
  facet normal 0 0 1
    outer loop
      vertex 19 12 30
      vertex 12 12.5 30
      vertex 17 12.05 30
    endloop
  endfacet
  facet normal 0 0 1
    outer loop
      vertex 20 13 30
      vertex 12 12.5 30
      vertex 19 12 30
    endloop
  endfacet
  facet normal 0 0 1
    outer loop
      vertex 20 14 30
      vertex 8 12.5 30
      vertex 20 13 30
    endloop
  endfacet
  facet normal 0 0 1
    outer loop
      vertex 19 15 30
      vertex 8 12.5 30
      vertex 20 14 30
    endloop
  endfacet
  facet normal 0 0 1
    outer loop
      vertex 1 15 30
      vertex 8 12.5 30
      vertex 19 15 30
    endloop
  endfacet
  facet normal 0 0 1
    outer loop
      vertex 0 14 30
      vertex 0 1 30
      vertex 1 15 30
    endloop
  endfacet
  facet normal -0.0896377 -0.995974 0
    outer loop
      vertex 12 12.5 0
      vertex 17 12.05 0
      vertex 17 12.05 30
    endloop
  endfacet
  facet normal -0.0896377 -0.995974 0
    outer loop
      vertex 12 12.5 30
      vertex 12 12.5 0
      vertex 17 12.05 30
    endloop
  endfacet
  facet normal -0.707107 -0.707107 0
    outer loop
      vertex 0 1 0
      vertex 1 0 0
      vertex 1 0 30
    endloop
  endfacet
  facet normal -0.707107 -0.707107 0
    outer loop
      vertex 0 1 30
      vertex 0 1 0
      vertex 1 0 30
    endloop
  endfacet
  facet normal -1 0 0
    outer loop
      vertex 0 1 30
      vertex 0 14 30
      vertex 0 1 0
    endloop
  endfacet
  facet normal -1 0 0
    outer loop
      vertex 0 1 0
      vertex 0 14 30
      vertex 0 14 0
    endloop
  endfacet
  facet normal 0 -1 0
    outer loop
      vertex 1 0 0
      vertex 17 0 0
      vertex 17 0 30
    endloop
  endfacet
  facet normal 0 -1 0
    outer loop
      vertex 1 0 30
      vertex 1 0 0
      vertex 17 0 30
    endloop
  endfacet
  facet normal 0.707107 -0.707107 0
    outer loop
      vertex 17 0 0
      vertex 18 1 0
      vertex 18 1 30
    endloop
  endfacet
  facet normal 0.707107 -0.707107 0
    outer loop
      vertex 17 0 30
      vertex 17 0 0
      vertex 18 1 30
    endloop
  endfacet
  facet normal 1 0 0
    outer loop
      vertex 18 1 0
      vertex 18 4 0
      vertex 18 4 30
    endloop
  endfacet
  facet normal 1 0 0
    outer loop
      vertex 18 1 30
      vertex 18 1 0
      vertex 18 4 30
    endloop
  endfacet
  facet normal 0.707107 0.707107 0
    outer loop
      vertex 17 5 30
      vertex 18 4 30
      vertex 17 5 0
    endloop
  endfacet
  facet normal 0.707107 0.707107 0
    outer loop
      vertex 17 5 0
      vertex 18 4 30
      vertex 18 4 0
    endloop
  endfacet
  facet normal -0.0249922 0.999688 0
    outer loop
      vertex 15 4.95 30
      vertex 17 5 30
      vertex 15 4.95 0
    endloop
  endfacet
  facet normal -0.0249922 0.999688 0
    outer loop
      vertex 15 4.95 0
      vertex 17 5 30
      vertex 17 5 0
    endloop
  endfacet
  facet normal -0.0896377 0.995974 0
    outer loop
      vertex 10 4.5 30
      vertex 15 4.95 30
      vertex 10 4.5 0
    endloop
  endfacet
  facet normal -0.0896377 0.995974 0
    outer loop
      vertex 10 4.5 0
      vertex 15 4.95 30
      vertex 15 4.95 0
    endloop
  endfacet
  facet normal -0.0249922 -0.999688 0
    outer loop
      vertex 17 12.05 0
      vertex 19 12 0
      vertex 19 12 30
    endloop
  endfacet
  facet normal -0.0249922 -0.999688 0
    outer loop
      vertex 17 12.05 30
      vertex 17 12.05 0
      vertex 19 12 30
    endloop
  endfacet
  facet normal 0.707107 -0.707107 0
    outer loop
      vertex 19 12 0
      vertex 20 13 0
      vertex 20 13 30
    endloop
  endfacet
  facet normal 0.707107 -0.707107 0
    outer loop
      vertex 19 12 30
      vertex 19 12 0
      vertex 20 13 30
    endloop
  endfacet
  facet normal 1 0 0
    outer loop
      vertex 20 13 0
      vertex 20 14 0
      vertex 20 14 30
    endloop
  endfacet
  facet normal 1 0 0
    outer loop
      vertex 20 13 30
      vertex 20 13 0
      vertex 20 14 30
    endloop
  endfacet
  facet normal 0.707107 0.707107 0
    outer loop
      vertex 19 15 30
      vertex 20 14 30
      vertex 19 15 0
    endloop
  endfacet
  facet normal 0.707107 0.707107 0
    outer loop
      vertex 19 15 0
      vertex 20 14 30
      vertex 20 14 0
    endloop
  endfacet
  facet normal 0 1 0
    outer loop
      vertex 1 15 30
      vertex 19 15 30
      vertex 1 15 0
    endloop
  endfacet
  facet normal 0 1 0
    outer loop
      vertex 1 15 0
      vertex 19 15 30
      vertex 19 15 0
    endloop
  endfacet
  facet normal -0.707107 0.707107 0
    outer loop
      vertex 0 14 30
      vertex 1 15 30
      vertex 0 14 0
    endloop
  endfacet
  facet normal -0.707107 0.707107 0
    outer loop
      vertex 0 14 0
      vertex 1 15 30
      vertex 1 15 0
    endloop
  endfacet
endsolid OpenSCAD_Model
